<svg width="20" height="16" viewBox="0 0 20 16" fill="none" xmlns="http://www.w3.org/2000/svg">
<path d="M20 4.21434C19.7667 4.4347 19.5335 4.65506 19.3069 4.8821C19.0803 5.10914 18.867 5.34953 18.6271 5.60996C16.1946 3.25277 13.3356 2.01074 9.99 2.01074C6.65778 2.01074 3.81206 3.25277 1.44618 5.54318C0.973009 5.07575 0.519827 4.62167 0 4.10082C0.71976 3.5399 1.41953 2.90553 2.19927 2.38468C7.75075 -1.30134 14.9084 -0.660294 19.7468 3.93388C19.8267 4.00734 19.9134 4.07411 20 4.14089C20 4.1676 20 4.18763 20 4.21434Z" fill="#E5E5E5"/>
<path d="M9.66998 15.8334C9.58334 15.7933 9.4967 15.7466 9.4034 15.7065C8.69697 15.406 8.30376 14.6648 8.45038 13.9102C8.597 13.1623 9.25678 12.6215 10.0232 12.6215C10.7829 12.6281 11.4427 13.1757 11.5827 13.9236C11.7226 14.6715 11.3161 15.4127 10.603 15.7065C10.5097 15.7466 10.4231 15.7866 10.3298 15.8267C10.1098 15.8334 9.8899 15.8334 9.66998 15.8334Z" fill="#E5E5E5"/>
<path d="M4.25845 8.36778C3.78527 7.90035 3.33209 7.45295 2.87891 6.99887C6.32442 3.25943 13.0089 2.76528 17.1142 6.95881C16.6543 7.41288 16.1878 7.86696 15.7146 8.33439C14.1551 6.83861 12.2425 5.99723 9.98987 6.00391C7.74395 6.01059 5.83792 6.84529 4.25845 8.36778Z" fill="#E5E5E5"/>
<path d="M14.335 9.81017C13.8619 10.2776 13.4087 10.7317 12.9555 11.1791C11.1761 9.49632 8.61029 9.67661 7.0708 11.1724C6.61762 10.7183 6.16444 10.2709 5.70459 9.81684C7.53065 7.67334 11.7226 7.13246 14.335 9.81017Z" fill="#E5E5E5"/>
</svg>
