<svg width="20" height="18" viewBox="0 0 20 18" fill="none" xmlns="http://www.w3.org/2000/svg">
<path d="M1.97661 0C2.25188 0 2.45207 0 2.65227 0C7.65713 0 12.662 0 17.6669 0C19.2309 0 19.9941 0.764092 19.9941 2.35491C19.9941 3.20668 20.0066 4.07098 19.9941 4.92276C19.9816 6.17537 19.1558 7.00209 17.9171 7.01461C17.2915 7.02714 16.6784 7.01461 16.0027 7.01461C16.0027 7.99165 16.0027 8.89353 16.0027 9.80793C15.9902 12.3132 14.3011 14.0167 11.8112 14.0292C9.93435 14.0292 8.05752 14.0418 6.1807 14.0292C3.7158 14.0167 2.00164 12.3257 2.00164 9.87056C1.9641 6.60125 1.97661 3.35699 1.97661 0ZM16.0403 2.0167C16.0403 2.99374 16.0403 3.9833 16.0403 4.97286C16.6909 4.97286 17.3165 4.97286 17.9421 4.97286C17.9421 3.97077 17.9421 2.99374 17.9421 2.0167C17.2915 2.0167 16.6909 2.0167 16.0403 2.0167Z" fill="#E5E5E5"/>
<path d="M17.955 16.0709C17.955 16.7223 17.955 17.3486 17.955 17.9999C11.9616 17.9999 5.99333 17.9999 0 17.9999C0 17.3486 0 16.7348 0 16.0709C5.9683 16.0709 11.9366 16.0709 17.955 16.0709Z" fill="#E5E5E5"/>
</svg>
